<svg id="color" enable-background="new 0 0 24 24" height="512" viewBox="0 0 24 24" width="512" xmlns="http://www.w3.org/2000/svg"><g><g><path d="m4.2 16.09c.41.42.99.66 1.59.66h-3.79v-11h2.28c.09.45.3.89.63 1.22l1.82 1.81c-.42.18-.81.44-1.15.78-.23.23-.95.94-1.95 4.29-.24.8-.02 1.66.57 2.24z" fill="#fafafa"/></g></g><g><g><path d="m22 5.75v11h-16.21c.22 0 .44-.03.64-.09 3.35-1.01 4.07-1.72 4.3-1.95.34-.35.6-.74.77-1.16l1.54 1.54c.41.42 1 .66 1.59.66h.13c.65-.04 1.25-.35 1.64-.86 1.47-1.87 1.79-4.13 1.87-6.2.78-.9 1.44-1.89 1.96-2.94z" fill="#fafafa"/></g></g><g><g><path d="m14.631 14.252c-.199 0-.391-.079-.532-.221l-2.313-2.324c-.145-.145-.223-.343-.218-.548s.094-.398.246-.536l3.724-3.375c.222-.201.54-.25.813-.127.272.124.445.397.44.696-.036 2.051-.19 4.386-1.571 6.147-.132.169-.332.273-.546.286-.013.002-.028.002-.043.002z" fill="#2196f3"/></g></g><g><g><path d="m8.823 8.433c-.198 0-.388-.078-.529-.218l-2.323-2.313c-.153-.151-.232-.361-.219-.576s.116-.413.286-.546c1.762-1.38 4.097-1.535 6.147-1.571.303.025.573.168.696.44.124.272.073.592-.127.813l-3.375 3.725c-.138.152-.332.241-.536.246-.007 0-.013 0-.02 0z" fill="#2196f3"/></g></g><g><g><path d="m5.786 15.251c-.196 0-.388-.077-.53-.22-.195-.195-.267-.481-.188-.746.269-.899.961-3.057 1.573-3.669.834-.834 2.193-.835 3.029 0 .835.836.835 2.195 0 3.03-.612.612-2.77 1.304-3.669 1.573-.07.021-.143.032-.215.032z" fill="#ff9800"/></g></g><g><g><path d="m7.821 7.744 3.315-3.675c2.089-2.414 5.286-4.015 8.136-4.068.201-.01.4.076.544.22s.224.341.22.544c-.054 2.85-1.655 6.047-4.08 8.146l-3.663 3.306z" fill="#eceff1"/></g></g><g><g><path d="m11.921 3.214c-1.994.044-4.223.236-5.92 1.566-.169.132-.273.331-.286.546-.012.214.067.424.22.576l1.85 1.842 3.315-3.676c.257-.297.532-.583.821-.854z" fill="#1d83d4"/></g></g><g><g><path d="m8.119 9.99c-.549 0-1.097.209-1.514.626-.612.612-1.304 2.77-1.573 3.669-.079.264-.007.551.188.746l4.415-4.415c-.419-.418-.967-.626-1.516-.626z" fill="#de8400"/></g></g><g><g><path d="m19.268-.001c-.011 0-.022 0-.032.001-2.499.047-5.264 1.283-7.315 3.214-.289.272-.563.557-.821.855l-3.315 3.675 2.361 2.361 9.744-9.745c-.031-.05-.068-.097-.11-.14-.136-.137-.322-.221-.512-.221z" fill="#cdd0d2"/></g></g><g><g><path d="m15.854 23.146c-1.313-1.313-1.353-2.586-1.354-2.649-.002-.275-.225-.497-.5-.497h-4.02c-.276 0-.5.227-.5.503 0 .054-.018 1.328-1.334 2.644-.143.143-.186.358-.108.545.077.186.26.308.462.308h7c.202 0 .385-.122.462-.309s.034-.401-.108-.545z" fill="#90a4ae"/></g></g><g><g><path d="m24 5.75v13.5c0 .96-.79 1.75-1.75 1.75h-20.5c-.96 0-1.75-.79-1.75-1.75v-13.5c0-.96.79-1.75 1.75-1.75h2.97c-.27.35-.44.78-.47 1.24-.01.17 0 .34.03.51h-2.28v11h20v-11h-1.77c.29-.57.53-1.16.72-1.75h1.3c.96 0 1.75.79 1.75 1.75z" fill="#607d8b"/></g></g><g><g><path d="m12 21h-2.591c-.118.501-.431 1.315-1.262 2.146-.143.143-.186.358-.108.545.076.187.259.309.461.309h3.5z" fill="#7d8f97"/></g></g><g><g><path d="m4.72 4h-2.97c-.96 0-1.75.79-1.75 1.75v13.5c0 .96.79 1.75 1.75 1.75h7.659 2.591v-4.25h-10v-11h2.28c-.03-.17-.04-.34-.03-.51.03-.46.2-.89.47-1.24z" fill="#546d79"/></g></g></svg>